<mxfile host="app.diagrams.net" modified="2023-10-10T13:24:23.407Z" agent="Mozilla/5.0 (Macintosh; Intel Mac OS X 10_15_7) AppleWebKit/537.36 (KHTML, like Gecko) Chrome/117.0.0.0 Safari/537.36" etag="IrAjnG9ipFJgp5HkWQFL" version="22.0.0" type="device">
  <diagram name="PÃ¡gina-1" id="SeC3mTEj9_R6ZtJixjoc">
    <mxGraphModel dx="768" dy="619" grid="1" gridSize="10" guides="1" tooltips="1" connect="1" arrows="1" fold="1" page="1" pageScale="1" pageWidth="827" pageHeight="1169" math="1" shadow="0">
      <root>
        <mxCell id="0" />
        <mxCell id="1" parent="0" />
        <mxCell id="JDCrlwHcRZJIzZH25RI2-8" value="&lt;font style=&quot;font-size: 18px;&quot;&gt;$$W$$&lt;/font&gt;" style="rounded=0;whiteSpace=wrap;html=1;fillColor=#dae8fc;strokeColor=#6c8ebf;" vertex="1" parent="1">
          <mxGeometry x="440" y="240" width="80" height="120" as="geometry" />
        </mxCell>
        <mxCell id="JDCrlwHcRZJIzZH25RI2-9" value="" style="group" vertex="1" connectable="0" parent="1">
          <mxGeometry x="570" y="240" width="60" height="20" as="geometry" />
        </mxCell>
        <mxCell id="JDCrlwHcRZJIzZH25RI2-5" value="" style="rounded=0;whiteSpace=wrap;html=1;fillColor=#fff2cc;strokeColor=#d6b656;" vertex="1" parent="JDCrlwHcRZJIzZH25RI2-9">
          <mxGeometry width="20" height="20" as="geometry" />
        </mxCell>
        <mxCell id="JDCrlwHcRZJIzZH25RI2-6" value="" style="rounded=0;whiteSpace=wrap;html=1;fillColor=#fff2cc;strokeColor=#d6b656;" vertex="1" parent="JDCrlwHcRZJIzZH25RI2-9">
          <mxGeometry x="20" width="20" height="20" as="geometry" />
        </mxCell>
        <mxCell id="JDCrlwHcRZJIzZH25RI2-7" value="" style="rounded=0;whiteSpace=wrap;html=1;fillColor=#fff2cc;strokeColor=#d6b656;" vertex="1" parent="JDCrlwHcRZJIzZH25RI2-9">
          <mxGeometry x="40" width="20" height="20" as="geometry" />
        </mxCell>
        <mxCell id="JDCrlwHcRZJIzZH25RI2-10" value="" style="group" vertex="1" connectable="0" parent="1">
          <mxGeometry x="440" y="420" width="80" height="20" as="geometry" />
        </mxCell>
        <mxCell id="JDCrlwHcRZJIzZH25RI2-1" value="" style="rounded=0;whiteSpace=wrap;html=1;fillColor=#d5e8d4;strokeColor=#82b366;" vertex="1" parent="JDCrlwHcRZJIzZH25RI2-10">
          <mxGeometry width="20" height="20" as="geometry" />
        </mxCell>
        <mxCell id="JDCrlwHcRZJIzZH25RI2-2" value="" style="rounded=0;whiteSpace=wrap;html=1;fillColor=#d5e8d4;strokeColor=#82b366;" vertex="1" parent="JDCrlwHcRZJIzZH25RI2-10">
          <mxGeometry x="20" width="20" height="20" as="geometry" />
        </mxCell>
        <mxCell id="JDCrlwHcRZJIzZH25RI2-3" value="" style="rounded=0;whiteSpace=wrap;html=1;fillColor=#d5e8d4;strokeColor=#82b366;" vertex="1" parent="JDCrlwHcRZJIzZH25RI2-10">
          <mxGeometry x="40" width="20" height="20" as="geometry" />
        </mxCell>
        <mxCell id="JDCrlwHcRZJIzZH25RI2-4" value="" style="rounded=0;whiteSpace=wrap;html=1;fillColor=#d5e8d4;strokeColor=#82b366;" vertex="1" parent="JDCrlwHcRZJIzZH25RI2-10">
          <mxGeometry x="60" width="20" height="20" as="geometry" />
        </mxCell>
        <mxCell id="JDCrlwHcRZJIzZH25RI2-12" style="edgeStyle=orthogonalEdgeStyle;rounded=0;orthogonalLoop=1;jettySize=auto;html=1;exitX=0.5;exitY=0;exitDx=0;exitDy=0;entryX=0.5;entryY=1;entryDx=0;entryDy=0;" edge="1" parent="1" source="JDCrlwHcRZJIzZH25RI2-11" target="JDCrlwHcRZJIzZH25RI2-8">
          <mxGeometry relative="1" as="geometry" />
        </mxCell>
        <mxCell id="JDCrlwHcRZJIzZH25RI2-11" value="&lt;font style=&quot;font-size: 16px;&quot;&gt;$$x_t$$&lt;/font&gt;" style="text;html=1;strokeColor=none;fillColor=none;align=center;verticalAlign=middle;whiteSpace=wrap;rounded=0;" vertex="1" parent="1">
          <mxGeometry x="450" y="390" width="60" height="30" as="geometry" />
        </mxCell>
        <mxCell id="JDCrlwHcRZJIzZH25RI2-15" value="" style="endArrow=classic;html=1;rounded=0;exitX=1;exitY=0.5;exitDx=0;exitDy=0;entryX=0;entryY=0.5;entryDx=0;entryDy=0;" edge="1" parent="1" source="JDCrlwHcRZJIzZH25RI2-8" target="JDCrlwHcRZJIzZH25RI2-8">
          <mxGeometry width="50" height="50" relative="1" as="geometry">
            <mxPoint x="690" y="300" as="sourcePoint" />
            <mxPoint x="400" y="300" as="targetPoint" />
            <Array as="points">
              <mxPoint x="560" y="300" />
              <mxPoint x="560" y="200" />
              <mxPoint x="400" y="200" />
              <mxPoint x="400" y="300" />
            </Array>
          </mxGeometry>
        </mxCell>
        <mxCell id="JDCrlwHcRZJIzZH25RI2-16" value="&lt;font style=&quot;font-size: 16px;&quot;&gt;$$h_{t-1}$$&lt;/font&gt;" style="text;html=1;strokeColor=none;fillColor=none;align=center;verticalAlign=middle;whiteSpace=wrap;rounded=0;" vertex="1" parent="1">
          <mxGeometry x="570" y="210" width="60" height="30" as="geometry" />
        </mxCell>
      </root>
    </mxGraphModel>
  </diagram>
</mxfile>
